<svg width="186" height="69" viewBox="0 0 186 69" fill="none" xmlns="http://www.w3.org/2000/svg">
<g clip-path="url(#clip0_436_307)">
<path d="M23.5614 38.6484C23.5614 38.824 23.516 38.9793 23.4298 39.1144C23.3412 39.2495 23.1733 39.362 22.9236 39.4498C22.674 39.5376 22.3335 39.6052 21.9 39.6525C21.4665 39.6997 20.9195 39.7245 20.2613 39.7245C19.2173 39.7245 18.466 39.684 18.0098 39.6052C17.5513 39.5264 17.2222 39.4071 17.0225 39.2472C16.8205 39.0874 16.6639 38.896 16.5527 38.6731L7.13356 24.0014V38.6731C7.13356 38.8487 7.0859 38.9996 6.9883 39.1279C6.89298 39.2562 6.72275 39.362 6.48217 39.4498C6.24158 39.5376 5.91929 39.6052 5.51756 39.6525C5.11583 39.6997 4.60288 39.7245 3.97646 39.7245C3.36592 39.7245 2.85524 39.6997 2.4467 39.6525C2.03816 39.6052 1.71133 39.5376 1.47074 39.4498C1.23016 39.362 1.05767 39.254 0.953261 39.1279C0.848856 38.9996 0.796654 38.8487 0.796654 38.6731V9.5413C0.796654 9.36569 0.848856 9.21486 0.953261 9.08653C1.05767 8.95821 1.23016 8.8569 1.47074 8.77585C1.71133 8.69706 2.03589 8.63177 2.4467 8.58449C2.85524 8.53722 3.36592 8.51245 3.97646 8.51245C4.60288 8.51245 5.11583 8.53722 5.51756 8.58449C5.91929 8.63177 6.23931 8.69706 6.48217 8.77585C6.72275 8.85465 6.89071 8.95821 6.9883 9.08653C7.08363 9.21486 7.13356 9.36569 7.13356 9.5413V22.7092L16.2644 9.56606C16.3756 9.35894 16.5141 9.18784 16.673 9.05276C16.8341 8.91769 17.0429 8.80962 17.2994 8.73083C17.5559 8.65203 17.885 8.59575 18.2867 8.56423C18.6884 8.53271 19.2014 8.51695 19.8278 8.51695C20.4701 8.51695 20.999 8.54172 21.4188 8.589C21.8365 8.63627 22.1701 8.70381 22.4198 8.79161C22.6694 8.87941 22.8419 8.98748 22.9372 9.11355C23.0326 9.24187 23.0825 9.3837 23.0825 9.54355C23.0825 9.8137 23.0099 10.0929 22.8646 10.381C22.7194 10.6669 22.447 11.1217 22.0453 11.7431L13.4909 22.8532L22.8147 36.8338C23.1688 37.4867 23.3798 37.9212 23.4525 38.1351C23.5251 38.349 23.5614 38.5223 23.5614 38.6484Z" fill="#5194C6"/>
<path d="M40.6906 19.4358C40.6906 20.0098 40.6747 20.4804 40.6429 20.8451C40.6111 21.212 40.5635 21.498 40.4977 21.7051C40.4341 21.9122 40.3479 22.0563 40.2457 22.1351C40.1413 22.2139 40.0097 22.2544 39.8485 22.2544C39.7192 22.2544 39.5762 22.2274 39.415 22.1711C39.2539 22.1148 39.0746 22.0563 38.8726 21.991C38.6706 21.928 38.4504 21.8672 38.2098 21.8109C37.9692 21.7546 37.7037 21.7276 37.4155 21.7276C37.0773 21.7276 36.7414 21.7951 36.4032 21.9302C36.065 22.0653 35.7177 22.2769 35.3546 22.5628C34.9937 22.8487 34.6147 23.2315 34.222 23.7087C33.8294 24.186 33.4072 24.7759 32.9578 25.476V38.7632C32.9578 38.923 32.9102 39.0626 32.8126 39.1819C32.7172 39.3012 32.5516 39.4003 32.3178 39.4814C32.084 39.5601 31.7753 39.6209 31.3895 39.6615C31.0036 39.702 30.5134 39.7222 29.9187 39.7222C29.3241 39.7222 28.8338 39.702 28.4503 39.6615C28.0644 39.6209 27.7557 39.5624 27.522 39.4814C27.2882 39.4026 27.1248 39.3012 27.0272 39.1819C26.9296 39.0626 26.8819 38.923 26.8819 38.7632V17.4524C26.8819 17.2925 26.9228 17.1529 27.0022 17.0336C27.0817 16.9143 27.2269 16.8153 27.4357 16.7342C27.6445 16.6554 27.9124 16.5946 28.2437 16.5541C28.5728 16.5136 28.9859 16.4933 29.4852 16.4933C29.9982 16.4933 30.4249 16.5136 30.7631 16.5541C31.1012 16.5946 31.3622 16.6532 31.5461 16.7342C31.7299 16.813 31.8638 16.9143 31.9433 17.0336C32.0227 17.1529 32.0636 17.2925 32.0636 17.4524V20.1044C32.6265 19.3074 33.1553 18.6501 33.6546 18.1323C34.1517 17.6145 34.626 17.2047 35.0754 16.9008C35.5248 16.5991 35.9742 16.3875 36.4236 16.2682C36.873 16.1489 37.3224 16.0881 37.7718 16.0881C37.9806 16.0881 38.2053 16.0993 38.4459 16.1241C38.6865 16.1489 38.9361 16.1871 39.1926 16.2434C39.4491 16.2997 39.6738 16.3627 39.8667 16.4348C40.0596 16.5068 40.2003 16.5834 40.2888 16.6622C40.3774 16.741 40.4409 16.8288 40.4818 16.9256C40.5226 17.0201 40.5589 17.1529 40.5907 17.3195C40.6225 17.4861 40.6475 17.7383 40.6633 18.0715C40.6815 18.4092 40.6906 18.8617 40.6906 19.4358Z" fill="#5194C6"/>
<path d="M61.6487 38.8397C61.6487 39.0626 61.5692 39.2382 61.4081 39.3665C61.2469 39.4949 60.995 39.5849 60.65 39.6412C60.305 39.6975 59.7944 39.7245 59.1203 39.7245C58.3985 39.7245 57.872 39.6975 57.5428 39.6412C57.2137 39.5849 56.98 39.4949 56.8438 39.3665C56.7076 39.2382 56.6395 39.0649 56.6395 38.8397V37.1423C55.7566 38.0833 54.7489 38.815 53.6163 39.3418C52.4838 39.8686 51.2264 40.1297 49.8464 40.1297C48.7048 40.1297 47.6585 39.9811 46.7029 39.6885C45.7474 39.3936 44.9212 38.9568 44.2222 38.3737C43.5231 37.7929 42.9807 37.0702 42.5971 36.2102C42.2113 35.3502 42.0183 34.3461 42.0183 33.2002C42.0183 31.9575 42.2635 30.8791 42.7537 29.9629C43.244 29.0466 43.9748 28.2901 44.9462 27.6935C45.9176 27.0969 47.1273 26.6534 48.5731 26.3675C50.0189 26.0816 51.6962 25.9375 53.6072 25.9375H55.7022V24.6475C55.7022 23.9789 55.6341 23.3936 55.4979 22.8915C55.3617 22.3895 55.137 21.9707 54.8238 21.6375C54.5106 21.3021 54.093 21.0567 53.5709 20.8969C53.0489 20.737 52.4021 20.6582 51.6326 20.6582C50.6204 20.6582 49.717 20.7708 48.9227 20.9937C48.1283 21.2165 47.4247 21.4642 46.8141 21.7343C46.2036 22.0045 45.6929 22.2521 45.2844 22.475C44.8758 22.6979 44.5422 22.8105 44.2857 22.8105C44.1087 22.8105 43.9521 22.7542 43.8159 22.6439C43.6797 22.5336 43.5662 22.3737 43.4777 22.1666C43.3892 21.9595 43.3211 21.7051 43.2735 21.4012C43.2258 21.0995 43.2008 20.764 43.2008 20.3971C43.2008 19.904 43.2417 19.5123 43.3211 19.2264C43.4006 18.9405 43.5526 18.6816 43.7796 18.4497C44.0043 18.2178 44.3969 17.9634 44.9598 17.6843C45.5227 17.4051 46.1809 17.1462 46.9344 16.9076C47.6902 16.6689 48.5118 16.4731 49.4038 16.3222C50.2958 16.1714 51.215 16.0948 52.1615 16.0948C53.8478 16.0948 55.2891 16.2592 56.4852 16.5856C57.6813 16.9121 58.6663 17.4141 59.4358 18.0917C60.2074 18.7694 60.768 19.6406 61.1221 20.7078C61.4762 21.7749 61.6509 23.0424 61.6509 24.5079V38.8397H61.6487ZM55.6976 29.7107H53.3848C52.4043 29.7107 51.5691 29.7827 50.8791 29.9268C50.1891 30.0709 49.6263 30.2848 49.1927 30.573C48.7592 30.8589 48.4415 31.2056 48.2418 31.6131C48.0398 32.0183 47.9399 32.4843 47.9399 33.0111C47.9399 33.9026 48.2259 34.605 48.7956 35.1138C49.3652 35.6249 50.1574 35.8793 51.1696 35.8793C52.0208 35.8793 52.8038 35.6632 53.5187 35.2332C54.2337 34.8032 54.96 34.1728 55.6999 33.3443V29.7107H55.6976Z" fill="#5194C6"/>
<path d="M79.2613 39.5804L76.6603 47.1313C76.515 47.5298 76.1223 47.8157 75.48 47.9913C74.8377 48.1669 73.8981 48.2547 72.6611 48.2547C72.0188 48.2547 71.5036 48.2277 71.12 48.1714C70.7342 48.1151 70.4459 48.025 70.253 47.8967C70.0601 47.7684 69.9557 47.6108 69.9398 47.4194C69.9239 47.2281 69.9715 46.9962 70.085 46.726L72.9516 39.5804C72.7428 39.4859 72.5544 39.3373 72.3865 39.1392C72.2185 38.941 72.0937 38.7294 72.012 38.5065L64.6151 18.9112C64.4063 18.3529 64.3019 17.9274 64.3019 17.6325C64.3019 17.3376 64.3972 17.1079 64.5902 16.9391C64.7831 16.7725 65.1077 16.6554 65.5661 16.5924C66.0246 16.5293 66.6306 16.4978 67.3841 16.4978C68.0741 16.4978 68.6211 16.5091 69.0228 16.5338C69.4246 16.5586 69.7378 16.6171 69.9625 16.7139C70.1872 16.8085 70.3551 16.9571 70.4686 17.1552C70.5798 17.3556 70.6933 17.637 70.8068 18.0039L75.8659 32.2704H75.9385L80.5641 17.718C80.6594 17.3038 80.7842 17.0291 80.9386 16.894C81.0906 16.759 81.3448 16.6599 81.6966 16.5946C82.0507 16.5316 82.6681 16.5001 83.551 16.5001C84.2409 16.5001 84.8152 16.5316 85.2736 16.5946C85.7321 16.6577 86.068 16.777 86.2859 16.9526C86.5038 17.1282 86.6105 17.3623 86.6105 17.6572C86.6105 17.9522 86.5469 18.2989 86.4175 18.6973L79.2613 39.5804Z" fill="#5194C6"/>
<path d="M126.865 38.7204C126.865 38.8803 126.82 39.0243 126.734 39.1504C126.645 39.2787 126.484 39.3823 126.252 39.4611C126.019 39.5399 125.71 39.6052 125.324 39.6525C124.938 39.6997 124.448 39.7245 123.856 39.7245C123.277 39.7245 122.796 39.6997 122.41 39.6525C122.024 39.6052 121.72 39.5421 121.495 39.4611C121.271 39.3823 121.109 39.2787 121.014 39.1504C120.916 39.0221 120.869 38.8803 120.869 38.7204V13.5576H120.821L111.788 38.6979C111.724 38.905 111.62 39.0761 111.475 39.2112C111.329 39.3463 111.134 39.4543 110.885 39.5331C110.635 39.6119 110.319 39.6637 109.934 39.6885C109.548 39.7132 109.082 39.7245 108.535 39.7245C107.988 39.7245 107.523 39.7042 107.137 39.6637C106.751 39.6232 106.434 39.5602 106.186 39.4723C105.937 39.3845 105.741 39.2765 105.596 39.1504C105.451 39.0221 105.356 38.8713 105.308 38.6957L96.5811 13.5576H96.5335V38.7204C96.5335 38.8803 96.4881 39.0243 96.4018 39.1504C96.3133 39.2787 96.1476 39.3823 95.907 39.4611C95.6664 39.5399 95.3578 39.6052 94.9787 39.6525C94.602 39.6997 94.1163 39.7245 93.5216 39.7245C92.9428 39.7245 92.4617 39.6997 92.0758 39.6525C91.69 39.6052 91.3813 39.5421 91.1475 39.4611C90.9138 39.3823 90.7549 39.2787 90.6664 39.1504C90.5778 39.0221 90.5347 38.8803 90.5347 38.7204V11.1667C90.5347 10.354 90.7526 9.73266 91.1861 9.30266C91.6196 8.87266 92.1984 8.65654 92.9201 8.65654H97.0646C97.8022 8.65654 98.4377 8.71732 98.9665 8.83664C99.4976 8.95596 99.9538 9.15632 100.34 9.43323C100.726 9.7124 101.046 10.0794 101.304 10.5319C101.561 10.9866 101.785 11.5472 101.978 12.2158L108.724 30.6405H108.819L115.805 12.2631C116.014 11.5945 116.243 11.0294 116.493 10.5656C116.743 10.1041 117.031 9.72816 117.36 9.44224C117.689 9.15632 118.079 8.95146 118.529 8.83214C118.978 8.71282 119.5 8.65203 120.095 8.65203H124.36C124.793 8.65203 125.165 8.70832 125.481 8.81863C125.794 8.93119 126.05 9.09329 126.252 9.30941C126.452 9.52554 126.607 9.78669 126.711 10.0974C126.815 10.408 126.868 10.7638 126.868 11.16V38.7204H126.865Z" fill="#A8A6A7"/>
<path d="M151.607 38.8397C151.607 39.0626 151.527 39.2382 151.366 39.3665C151.205 39.4949 150.953 39.5849 150.608 39.6412C150.263 39.6975 149.753 39.7245 149.079 39.7245C148.357 39.7245 147.83 39.6975 147.501 39.6412C147.172 39.5849 146.938 39.4949 146.802 39.3665C146.666 39.2382 146.598 39.0649 146.598 38.8397V37.1423C145.715 38.0833 144.707 38.815 143.575 39.3418C142.442 39.8686 141.185 40.1297 139.805 40.1297C138.663 40.1297 137.617 39.9811 136.661 39.6885C135.706 39.3936 134.879 38.9568 134.18 38.3737C133.481 37.7929 132.939 37.0702 132.553 36.2102C132.167 35.3502 131.974 34.3461 131.974 33.2002C131.974 31.9575 132.219 30.8791 132.71 29.9629C133.2 29.0466 133.931 28.2901 134.902 27.6935C135.874 27.0969 137.083 26.6534 138.529 26.3675C139.975 26.0816 141.652 25.9375 143.563 25.9375H145.658V24.6475C145.658 23.9789 145.59 23.3936 145.454 22.8915C145.318 22.3895 145.093 21.9707 144.78 21.6375C144.467 21.3021 144.049 21.0567 143.527 20.8969C143.005 20.737 142.358 20.6582 141.589 20.6582C140.576 20.6582 139.673 20.7708 138.879 20.9937C138.084 21.2165 137.381 21.4642 136.77 21.7343C136.16 22.0045 135.649 22.2521 135.24 22.475C134.832 22.6979 134.498 22.8105 134.239 22.8105C134.062 22.8105 133.906 22.7542 133.77 22.6439C133.633 22.5336 133.52 22.3737 133.431 22.1666C133.343 21.9595 133.275 21.7051 133.227 21.4012C133.18 21.0995 133.155 20.764 133.155 20.3971C133.155 19.904 133.195 19.5123 133.275 19.2264C133.354 18.9405 133.506 18.6816 133.733 18.4497C133.958 18.2178 134.351 17.9634 134.914 17.6843C135.476 17.4051 136.135 17.1462 136.888 16.9076C137.644 16.6689 138.466 16.4731 139.358 16.3222C140.25 16.1714 141.169 16.0948 142.115 16.0948C143.802 16.0948 145.243 16.2592 146.439 16.5856C147.635 16.9121 148.62 17.4141 149.389 18.0917C150.161 18.7694 150.722 19.6406 151.076 20.7078C151.43 21.7749 151.605 23.0424 151.605 24.5079V38.8397H151.607ZM145.656 29.7107H143.343C142.363 29.7107 141.527 29.7827 140.837 29.9268C140.147 30.0709 139.585 30.2848 139.151 30.573C138.717 30.8589 138.4 31.2056 138.2 31.6131C138 32.0183 137.898 32.4843 137.898 33.0111C137.898 33.9026 138.182 34.605 138.754 35.1138C139.323 35.6249 140.116 35.8793 141.128 35.8793C141.979 35.8793 142.762 35.6632 143.477 35.2332C144.192 34.8032 144.918 34.1728 145.658 33.3443V29.7107H145.656Z" fill="#A8A6A7"/>
<path d="M178.18 38.7677C178.18 38.9275 178.132 39.0671 178.035 39.1864C177.937 39.3058 177.778 39.4048 177.554 39.4859C177.329 39.5647 177.02 39.6254 176.625 39.666C176.233 39.7065 175.747 39.7267 175.168 39.7267C174.574 39.7267 174.081 39.7065 173.686 39.666C173.291 39.6254 172.983 39.5669 172.758 39.4859C172.533 39.4071 172.372 39.3058 172.277 39.1864C172.181 39.0671 172.131 38.9275 172.131 38.7677V26.6039C172.131 25.5683 172.054 24.7556 171.902 24.1658C171.75 23.5759 171.53 23.0716 171.239 22.6484C170.951 22.2274 170.577 21.8987 170.118 21.6691C169.66 21.4394 169.126 21.3224 168.516 21.3224C167.744 21.3224 166.966 21.6015 166.178 22.1576C165.391 22.7159 164.571 23.5286 163.72 24.5957V38.7654C163.72 38.9253 163.672 39.0649 163.575 39.1842C163.477 39.3035 163.314 39.4026 163.08 39.4836C162.846 39.5624 162.538 39.6232 162.152 39.6637C161.766 39.7042 161.276 39.7245 160.683 39.7245C160.089 39.7245 159.598 39.7042 159.213 39.6637C158.827 39.6232 158.518 39.5647 158.284 39.4836C158.05 39.4048 157.887 39.3035 157.789 39.1842C157.694 39.0649 157.644 38.9253 157.644 38.7654V17.4524C157.644 17.2925 157.685 17.1529 157.764 17.0336C157.844 16.9143 157.989 16.8153 158.198 16.7342C158.407 16.6554 158.675 16.5946 159.006 16.5541C159.335 16.5136 159.748 16.4933 160.247 16.4933C160.76 16.4933 161.187 16.5136 161.525 16.5541C161.863 16.5946 162.125 16.6532 162.308 16.7342C162.492 16.813 162.626 16.9143 162.706 17.0336C162.785 17.1529 162.826 17.2925 162.826 17.4524V19.913C164.015 18.6388 165.223 17.682 166.453 17.0449C167.681 16.4078 168.963 16.0881 170.295 16.0881C171.757 16.0881 172.989 16.3267 173.993 16.804C174.996 17.2813 175.808 17.9319 176.426 18.7514C177.043 19.5731 177.49 20.5322 177.763 21.6308C178.035 22.7294 178.171 24.0532 178.171 25.5976V38.7677H178.18Z" fill="#A8A6A7"/>
<path d="M9.68694 56.8271C9.68694 57.1445 9.66651 57.4822 9.62793 57.8357C9.58707 58.1914 9.52125 58.5516 9.4282 58.9208C9.33514 59.29 9.20804 59.6547 9.05143 60.0172C8.89482 60.3796 8.69736 60.7263 8.46132 61.0573C8.22527 61.3882 7.9461 61.6966 7.62381 61.9826C7.30152 62.2685 6.92702 62.5161 6.50487 62.7255C6.08271 62.9349 5.60835 63.097 5.07951 63.214C4.55068 63.3311 3.91972 63.3896 3.18888 63.3896H0.55153C0.465283 63.3896 0.383575 63.3784 0.306406 63.3581C0.229237 63.3378 0.165687 63.3018 0.113484 63.25C0.061282 63.1983 0.027237 63.133 0.00907963 63.0474C-0.0090777 62.9619 -0.00453837 62.8561 0.020428 62.73L1.83162 53.7631C1.87475 53.5289 1.9678 53.3623 2.11306 53.2588C2.25832 53.1552 2.42854 53.1034 2.62601 53.1034H5.12718C5.9488 53.1034 6.63878 53.1822 7.1903 53.3421C7.7441 53.5019 8.20485 53.736 8.57707 54.049C8.9493 54.3619 9.2262 54.7491 9.41004 55.2129C9.59615 55.6812 9.68694 56.217 9.68694 56.8271ZM7.47628 57.0725C7.47628 56.7393 7.43089 56.4286 7.3401 56.1427C7.24932 55.8568 7.10179 55.6091 6.89979 55.4043C6.69552 55.1971 6.43677 55.035 6.11902 54.9202C5.80127 54.8032 5.37457 54.7446 4.8412 54.7446H3.74268L2.32414 61.7394H3.42947C3.99007 61.7394 4.46217 61.6719 4.84347 61.5368C5.22477 61.4017 5.56295 61.2171 5.85347 60.9807C6.14399 60.7443 6.39365 60.4719 6.59792 60.1613C6.80446 59.8506 6.97242 59.5241 7.10179 59.1797C7.23343 58.8352 7.32648 58.484 7.3855 58.1216C7.44678 57.7614 7.47628 57.4124 7.47628 57.0725Z" fill="white"/>
<path d="M17.6217 57.5903C17.6217 57.9707 17.5354 58.3152 17.3607 58.6191C17.1859 58.923 16.9181 59.1864 16.5504 59.4071C16.185 59.6277 15.7197 59.7943 15.1568 59.9114C14.594 60.0284 13.9221 60.087 13.1414 60.087H12.4037C12.3833 60.2085 12.3651 60.3301 12.3561 60.4494C12.3447 60.5687 12.3402 60.6791 12.3402 60.7781C12.3402 61.2081 12.4514 61.53 12.6761 61.7484C12.9008 61.9668 13.2617 62.0749 13.7587 62.0749C14.1105 62.0749 14.4283 62.0501 14.7074 61.9983C14.9866 61.9465 15.234 61.8925 15.4451 61.8317C15.6562 61.7709 15.8309 61.7147 15.9694 61.6651C16.1078 61.6156 16.21 61.5886 16.2735 61.5886C16.3371 61.5886 16.3825 61.6066 16.4097 61.6449C16.4369 61.6831 16.4505 61.7394 16.4505 61.8205C16.4505 61.9105 16.4415 62.0141 16.4256 62.1311C16.4097 62.2482 16.387 62.363 16.3575 62.4778C16.328 62.5927 16.2917 62.6985 16.2463 62.7998C16.2009 62.9011 16.1487 62.9776 16.0897 63.0294C16.0261 63.0924 15.9081 63.1555 15.7379 63.2208C15.5676 63.2838 15.3611 63.3423 15.1205 63.3964C14.8799 63.4504 14.6098 63.4932 14.3102 63.5269C14.0106 63.5607 13.7065 63.5787 13.3978 63.5787C12.8849 63.5787 12.4378 63.5247 12.0565 63.4189C11.6752 63.3131 11.3551 63.151 11.0987 62.9349C10.8422 62.7187 10.6493 62.4418 10.5222 62.1041C10.3951 61.7687 10.3293 61.3679 10.3293 60.9087C10.3293 60.553 10.3633 60.1725 10.4291 59.7673C10.4949 59.362 10.6039 58.9613 10.7537 58.5673C10.9035 58.1734 11.0964 57.7951 11.3302 57.4349C11.5662 57.0747 11.8499 56.7573 12.1836 56.4849C12.5172 56.2125 12.9031 55.9941 13.3411 55.8297C13.7791 55.6654 14.2785 55.5844 14.8391 55.5844C15.3248 55.5844 15.7424 55.6406 16.0942 55.7555C16.4437 55.8703 16.732 56.0211 16.9567 56.208C17.1814 56.3971 17.3471 56.6109 17.4583 56.8518C17.5672 57.0882 17.6217 57.3359 17.6217 57.5903ZM15.6425 57.7411C15.6425 57.5295 15.5586 57.3539 15.3906 57.212C15.2227 57.0725 14.9775 57.0004 14.6575 57.0004C14.3897 57.0004 14.1514 57.0477 13.9403 57.1445C13.7292 57.2413 13.5431 57.3674 13.3842 57.5295C13.2231 57.6916 13.0869 57.8829 12.9711 58.1013C12.8554 58.3219 12.7646 58.5561 12.6942 58.8037H13.3683C13.795 58.8037 14.1536 58.7767 14.4419 58.7204C14.7301 58.6641 14.9616 58.5898 15.1387 58.493C15.3157 58.3985 15.4428 58.2859 15.5222 58.1553C15.6017 58.027 15.6425 57.8897 15.6425 57.7411Z" fill="white"/>
<path d="M29.4489 63.1217C29.4376 63.1757 29.4126 63.2208 29.3717 63.2613C29.3309 63.3018 29.2696 63.3333 29.1834 63.3604C29.0971 63.3874 28.9904 63.4076 28.8588 63.4189C28.7272 63.4324 28.5637 63.4391 28.3663 63.4391C28.1734 63.4391 28.0145 63.4324 27.8851 63.4189C27.758 63.4054 27.6582 63.3851 27.5878 63.3604C27.5174 63.3333 27.472 63.2996 27.4471 63.2613C27.4221 63.2208 27.4198 63.1757 27.4357 63.1217L28.2937 58.869C28.3141 58.7474 28.3345 58.6259 28.3504 58.5065C28.3663 58.3872 28.3754 58.2679 28.3754 58.1441C28.3754 57.8942 28.3277 57.6938 28.2346 57.5407C28.1416 57.3876 27.9736 57.3111 27.733 57.3111C27.5197 57.3111 27.2973 57.3809 27.068 57.5182C26.8388 57.6556 26.6186 57.8424 26.4076 58.0788C26.1965 58.3152 26.0104 58.5898 25.847 58.905C25.6835 59.2202 25.5678 59.5556 25.4974 59.9114L24.8483 63.1217C24.837 63.1757 24.812 63.2208 24.7711 63.2613C24.7303 63.3018 24.669 63.3333 24.5828 63.3604C24.4965 63.3874 24.3898 63.4076 24.2582 63.4189C24.1265 63.4324 23.9631 63.4391 23.7657 63.4391C23.5728 63.4391 23.4139 63.4324 23.289 63.4189C23.1642 63.4054 23.0666 63.3851 22.9963 63.3604C22.9259 63.3333 22.8805 63.2996 22.8555 63.2613C22.8306 63.2208 22.8238 63.1757 22.8351 63.1217L23.684 58.869C23.7157 58.7474 23.7384 58.6214 23.7521 58.4908C23.7657 58.3602 23.7725 58.2341 23.7725 58.1126C23.7725 57.8784 23.7248 57.6871 23.6272 57.5362C23.5319 57.3854 23.3662 57.3089 23.1302 57.3089C22.9168 57.3089 22.6944 57.3786 22.4652 57.516C22.2359 57.6533 22.0158 57.8402 21.8047 58.0765C21.5936 58.3129 21.4075 58.5876 21.2441 58.9028C21.0807 59.218 20.9649 59.5534 20.8945 59.9091L20.2454 63.1195C20.2341 63.1735 20.2091 63.2185 20.1683 63.259C20.1274 63.2996 20.0661 63.3311 19.9844 63.3581C19.9004 63.3851 19.7938 63.4054 19.6598 63.4166C19.5259 63.4301 19.3625 63.4369 19.1719 63.4369C18.9744 63.4369 18.8133 63.4301 18.6862 63.4166C18.5613 63.4031 18.4615 63.3829 18.3888 63.3581C18.3162 63.3311 18.2708 63.2973 18.2481 63.259C18.2277 63.2185 18.2209 63.1735 18.2322 63.1195L19.6667 56.0211C19.678 55.9671 19.7007 55.922 19.7347 55.8815C19.7688 55.841 19.8233 55.8095 19.8959 55.787C19.9685 55.7622 20.0616 55.7442 20.1773 55.7307C20.2931 55.7172 20.4293 55.7104 20.5904 55.7104C20.7561 55.7104 20.89 55.7172 20.9944 55.7307C21.0988 55.7442 21.1805 55.7622 21.2395 55.787C21.2985 55.8117 21.3371 55.8433 21.3553 55.8815C21.3734 55.922 21.378 55.9671 21.3666 56.0211L21.1351 57.1895C21.2463 57.0049 21.3961 56.8136 21.5845 56.6222C21.7706 56.4286 21.984 56.2552 22.2223 56.1022C22.4606 55.9491 22.7194 55.823 22.9985 55.7239C23.28 55.6249 23.5682 55.5776 23.8678 55.5776C24.1765 55.5776 24.4466 55.6181 24.6735 55.7014C24.9005 55.7847 25.0866 55.8973 25.2341 56.0436C25.3817 56.19 25.4929 56.3611 25.5701 56.5569C25.6472 56.7528 25.6972 56.9644 25.7176 57.1918C25.8401 57.0004 25.9968 56.8113 26.1874 56.62C26.3781 56.4286 26.5914 56.2575 26.8275 56.1044C27.0658 55.9513 27.3222 55.8252 27.6014 55.7262C27.8783 55.6271 28.1643 55.5799 28.4593 55.5799C28.8338 55.5799 29.147 55.6316 29.4013 55.7352C29.6555 55.8388 29.8597 55.9806 30.0141 56.1652C30.1684 56.3475 30.2819 56.5637 30.35 56.8091C30.4203 57.0545 30.4544 57.3224 30.4544 57.6083C30.4544 57.7929 30.443 57.9797 30.4226 58.1688C30.4022 58.358 30.3681 58.5493 30.3273 58.7452L29.4489 63.1217Z" fill="white"/>
<path d="M38.8499 56.0076C38.8499 56.0774 38.8408 56.1539 38.8249 56.2372C38.809 56.3228 38.7841 56.4106 38.7523 56.5006C38.5707 56.9892 38.3732 57.4912 38.1622 58.0113C37.9511 58.5313 37.7082 59.0649 37.4359 59.6164C37.1635 60.168 36.8526 60.7376 36.5053 61.3252C36.1581 61.9128 35.7609 62.5229 35.3115 63.1532L33.3573 65.9043C33.3096 65.9741 33.2483 66.0304 33.178 66.0754C33.1054 66.1204 33.0146 66.1565 32.9056 66.1857C32.7967 66.215 32.665 66.2375 32.5084 66.2533C32.3541 66.269 32.1748 66.278 31.9705 66.278C31.7413 66.278 31.5552 66.269 31.4145 66.251C31.2737 66.233 31.1693 66.2015 31.1058 66.1587C31.0422 66.1159 31.0127 66.0642 31.0173 65.9989C31.0218 65.9358 31.0604 65.8593 31.1285 65.7692L32.9465 63.3919L31.7685 56.5727C31.7572 56.5029 31.7481 56.4331 31.7367 56.3588C31.7254 56.2845 31.7209 56.2215 31.7209 56.1674C31.7209 56.0729 31.739 55.9963 31.7731 55.9378C31.8071 55.8793 31.8661 55.8342 31.9501 55.8027C32.0341 55.7712 32.143 55.7487 32.2837 55.7352C32.4222 55.7217 32.5901 55.7149 32.7876 55.7149C33.0055 55.7149 33.178 55.7194 33.3051 55.7262C33.4299 55.7352 33.5252 55.751 33.5888 55.778C33.6523 55.805 33.6977 55.8433 33.7204 55.8973C33.7431 55.9513 33.7613 56.0166 33.7726 56.0954L34.5103 61.064H34.5262C34.794 60.6655 35.0368 60.2648 35.2547 59.8551C35.4726 59.4476 35.6746 59.0333 35.8562 58.6101C36.0378 58.1891 36.2057 57.7614 36.3578 57.3314C36.5099 56.8991 36.6506 56.4646 36.7777 56.0234C36.789 55.9693 36.8117 55.9243 36.8503 55.8838C36.8866 55.8433 36.9502 55.8117 37.0387 55.7892C37.1272 55.7645 37.243 55.7464 37.3882 55.7329C37.5335 55.7194 37.7196 55.7127 37.9488 55.7127C38.2915 55.7127 38.5253 55.7329 38.6547 55.7757C38.7841 55.8185 38.8499 55.8973 38.8499 56.0076Z" fill="white"/>
<path d="M44.7782 56.3408C44.7782 56.4038 44.7692 56.4984 44.751 56.6222C44.7329 56.746 44.7034 56.8721 44.667 57.0004C44.6285 57.1265 44.5853 57.2368 44.5354 57.3291C44.4855 57.4214 44.4265 57.4687 44.3629 57.4687C44.2925 57.4687 44.2108 57.4439 44.1178 57.3921C44.0247 57.3426 43.9112 57.2863 43.7773 57.2256C43.6434 57.1648 43.4868 57.1107 43.3075 57.0635C43.1282 57.0162 42.9194 56.9914 42.6788 56.9914C42.4927 56.9914 42.3247 57.0162 42.1772 57.0635C42.0297 57.1107 41.9094 57.176 41.8118 57.2593C41.7165 57.3426 41.6416 57.4372 41.5916 57.5497C41.5417 57.6601 41.5145 57.7794 41.5145 57.9077C41.5145 58.072 41.5826 58.2094 41.7187 58.3219C41.8549 58.4322 42.0251 58.5381 42.2271 58.6349C42.4291 58.7339 42.6493 58.8352 42.8853 58.941C43.1214 59.0469 43.3393 59.1797 43.5436 59.3395C43.7456 59.4994 43.9158 59.693 44.0474 59.9204C44.1813 60.1477 44.2471 60.4337 44.2471 60.7781C44.2471 61.1811 44.17 61.5525 44.0156 61.8947C43.8613 62.2369 43.6343 62.5319 43.3393 62.7818C43.042 63.0317 42.6811 63.2253 42.2566 63.3671C41.8322 63.5067 41.3533 63.5787 40.8177 63.5787C40.5612 63.5787 40.3161 63.5607 40.0846 63.5224C39.8531 63.4842 39.6443 63.4391 39.4604 63.3874C39.2766 63.3333 39.12 63.2725 38.9906 63.205C38.8635 63.1352 38.7659 63.0722 38.7024 63.0136C38.6592 62.9709 38.6297 62.9258 38.6093 62.8786C38.5911 62.8313 38.5821 62.7705 38.5821 62.6962C38.5821 62.6489 38.5866 62.5881 38.5934 62.5139C38.6002 62.4396 38.6138 62.3585 38.6343 62.2685C38.6524 62.1784 38.6751 62.0884 38.6978 61.9983C38.7205 61.9083 38.75 61.8272 38.7818 61.7529C38.8136 61.6786 38.8476 61.6201 38.8862 61.5751C38.9225 61.53 38.9634 61.5075 39.0065 61.5075C39.0814 61.5075 39.1631 61.539 39.2539 61.6021C39.3447 61.6651 39.4627 61.7349 39.6057 61.8137C39.7509 61.8902 39.928 61.9623 40.1391 62.0276C40.3501 62.0929 40.6134 62.1266 40.9289 62.1266C41.1468 62.1266 41.3397 62.1019 41.5009 62.0501C41.6643 62.0006 41.7982 61.9285 41.9049 61.8385C42.0115 61.7484 42.091 61.6449 42.1409 61.5278C42.1908 61.4107 42.2181 61.2869 42.2181 61.1541C42.2181 60.9695 42.1522 60.8186 42.0206 60.7016C41.889 60.5845 41.7255 60.4764 41.5281 60.3751C41.3306 60.2738 41.115 60.1702 40.8835 60.0644C40.652 59.9586 40.4364 59.8281 40.2389 59.675C40.0415 59.5219 39.8758 59.3305 39.7464 59.1031C39.6148 58.8758 39.5489 58.5898 39.5489 58.2454C39.5489 57.8694 39.6216 57.5205 39.7646 57.1963C39.9098 56.8721 40.1209 56.5907 40.3978 56.3498C40.6747 56.1089 41.0129 55.9198 41.4078 55.7847C41.8027 55.6496 42.2521 55.5821 42.7537 55.5821C42.9784 55.5821 43.1963 55.5979 43.4074 55.6249C43.6184 55.6541 43.8091 55.6924 43.9771 55.7397C44.145 55.787 44.2925 55.841 44.4174 55.8995C44.5422 55.9581 44.633 56.0166 44.6852 56.0751C44.7487 56.1247 44.7782 56.2147 44.7782 56.3408Z" fill="white"/>
<path d="M52.7448 63.1217C52.7334 63.1757 52.7085 63.2208 52.6676 63.2613C52.6268 63.3018 52.5655 63.3333 52.4838 63.3604C52.3998 63.3874 52.2931 63.4076 52.1637 63.4189C52.0321 63.4324 51.8687 63.4391 51.6712 63.4391C51.4783 63.4391 51.3194 63.4324 51.1901 63.4189C51.063 63.4054 50.9608 63.3851 50.8905 63.3604C50.8178 63.3333 50.7702 63.2996 50.7452 63.2613C50.7202 63.2208 50.718 63.1757 50.7339 63.1217L51.8868 57.3831H48.673L47.9989 60.7128C47.983 60.7916 47.9671 60.8862 47.9558 60.9942C47.9422 61.1023 47.9354 61.1923 47.9354 61.2599C47.9354 61.4715 47.9853 61.6268 48.0874 61.7259C48.1896 61.825 48.3484 61.8722 48.5686 61.8722C48.6957 61.8722 48.8069 61.8632 48.8977 61.8452C48.9885 61.8272 49.0679 61.8047 49.1337 61.7822C49.1996 61.7574 49.2586 61.7372 49.3062 61.7191C49.3539 61.7011 49.3993 61.6921 49.4424 61.6921C49.4855 61.6921 49.5219 61.7124 49.5514 61.7507C49.5809 61.7912 49.5945 61.8565 49.5945 61.9465C49.5945 62.0478 49.5831 62.1604 49.5627 62.2887C49.5423 62.4148 49.5128 62.5386 49.4787 62.6579C49.4447 62.7773 49.4061 62.8853 49.363 62.9844C49.3199 63.0834 49.2745 63.1555 49.2268 63.2028C49.1791 63.25 49.1065 63.2951 49.0112 63.3378C48.9158 63.3806 48.8024 63.4166 48.6707 63.4482C48.5391 63.4797 48.3984 63.5044 48.2508 63.5247C48.101 63.5427 47.9512 63.5517 47.8014 63.5517C47.4814 63.5517 47.2 63.5179 46.9549 63.4527C46.712 63.3874 46.5077 63.2816 46.342 63.1397C46.1764 62.9956 46.0515 62.8133 45.9698 62.5904C45.8858 62.3675 45.845 62.0974 45.845 61.7799C45.845 61.7214 45.8473 61.6539 45.8541 61.5773C45.8586 61.5008 45.8677 61.4197 45.8813 61.3342C45.8949 61.2486 45.9085 61.1631 45.9222 61.0753C45.9358 60.9875 45.9494 60.9087 45.9653 60.8411L46.6621 57.3831H45.7973C45.727 57.3831 45.677 57.3606 45.6453 57.3156C45.6135 57.2706 45.5976 57.185 45.5976 57.0567C45.5976 56.9667 45.6067 56.8496 45.6248 56.7032C45.643 56.5569 45.6748 56.4151 45.7179 56.2733C45.761 56.1337 45.8178 56.0121 45.8858 55.9108C45.9562 55.8095 46.0379 55.76 46.1332 55.76H46.9912L47.3112 54.1773C47.3225 54.1255 47.3475 54.076 47.3884 54.0332C47.4292 53.9904 47.4905 53.9544 47.5722 53.9251C47.6539 53.8959 47.7629 53.8756 47.8922 53.8621C48.0239 53.8486 48.1873 53.8418 48.3847 53.8418C48.5777 53.8418 48.7365 53.8486 48.8659 53.8621C48.993 53.8756 49.0952 53.8959 49.1655 53.9251C49.2381 53.9544 49.2835 53.9904 49.3062 54.0332C49.3267 54.076 49.3335 54.1233 49.3221 54.1773L49.0021 55.76H53.6254C53.8501 55.76 53.9976 55.8072 54.0657 55.904C54.1361 55.9986 54.152 56.1382 54.1134 56.3183L52.7448 63.1217ZM54.8034 53.646C54.7648 53.8418 54.7148 54.0084 54.6513 54.1435C54.5877 54.2786 54.5038 54.3867 54.3994 54.47C54.295 54.5533 54.1633 54.6095 54.0067 54.6456C53.8501 54.6793 53.6572 54.6973 53.4348 54.6973C53.2101 54.6973 53.0285 54.6793 52.8855 54.6456C52.7448 54.6118 52.6381 54.5533 52.5655 54.47C52.4928 54.3889 52.452 54.2786 52.4406 54.1435C52.4293 54.0084 52.4429 53.8418 52.4815 53.646C52.5246 53.4546 52.5768 53.2948 52.6381 53.162C52.6994 53.0291 52.7834 52.9211 52.89 52.8355C52.9967 52.75 53.1283 52.6892 53.2827 52.6532C53.437 52.6171 53.6299 52.5969 53.8592 52.5969C54.0839 52.5969 54.2655 52.6149 54.4084 52.6532C54.5492 52.6892 54.6558 52.7522 54.7285 52.8355C54.8011 52.9188 54.8397 53.0291 54.8488 53.162C54.8556 53.2948 54.8419 53.4569 54.8034 53.646Z" fill="white"/>
<path d="M61.1199 52.804C61.1199 52.8355 61.1153 52.8873 61.1085 52.9593C61.0994 53.0314 61.0904 53.1124 61.0767 53.2025C61.0631 53.2925 61.045 53.3848 61.0245 53.4816C61.0041 53.5762 60.9769 53.6662 60.9474 53.7473C60.9179 53.8306 60.8838 53.8959 60.8475 53.9454C60.8089 53.9949 60.7703 54.022 60.7272 54.022C60.6954 54.022 60.6546 54.0129 60.6024 53.9972C60.5524 53.9814 60.4934 53.9634 60.4299 53.9454C60.3663 53.9274 60.2914 53.9094 60.2097 53.8936C60.1257 53.8779 60.0372 53.8689 59.9419 53.8689C59.7717 53.8689 59.6219 53.8936 59.497 53.9409C59.3722 53.9882 59.2633 54.0647 59.1725 54.1683C59.0817 54.2718 59.0045 54.4047 58.941 54.569C58.8774 54.7334 58.823 54.9292 58.7798 55.1566L58.6595 55.76H59.9578C60.0372 55.76 60.094 55.7847 60.1257 55.8365C60.1575 55.886 60.1734 55.9671 60.1734 56.0796C60.1734 56.1337 60.1689 56.2012 60.1621 56.2868C60.1552 56.3723 60.1394 56.4624 60.1189 56.5614C60.0985 56.6605 60.0713 56.7573 60.0395 56.8518C60.0077 56.9464 59.9737 57.0342 59.9351 57.1152C59.8965 57.1963 59.8534 57.2593 59.8034 57.3088C59.7535 57.3584 59.699 57.3854 59.64 57.3854H58.3259L57.0685 63.617C56.9777 64.056 56.8529 64.4432 56.6963 64.7764C56.5397 65.1096 56.3399 65.3888 56.0994 65.6139C55.8588 65.839 55.5751 66.0079 55.246 66.1227C54.9169 66.2375 54.5446 66.2938 54.127 66.2938C53.8501 66.2938 53.6163 66.2735 53.4302 66.2308C53.2441 66.188 53.1238 66.1452 53.0694 66.1047C53.0421 66.0732 53.024 66.0394 53.0126 66.0011C53.0013 65.9651 52.9967 65.9111 52.9967 65.8413C52.9967 65.8098 53.0013 65.7557 53.0081 65.6814C53.0171 65.6071 53.0285 65.5261 53.0444 65.4383C53.0603 65.3505 53.0807 65.2604 53.1034 65.1636C53.1261 65.0668 53.1533 64.9813 53.1828 64.9002C53.2123 64.8214 53.2464 64.7562 53.2827 64.7044C53.3213 64.6548 53.3621 64.6278 53.4098 64.6278C53.4416 64.6278 53.4734 64.6301 53.5051 64.6368C53.5369 64.6413 53.5709 64.6481 53.6095 64.6571C53.6458 64.6661 53.6912 64.6706 53.7412 64.6774C53.7911 64.6819 53.8569 64.6864 53.9364 64.6864C54.1066 64.6864 54.2564 64.6616 54.3812 64.6098C54.506 64.558 54.615 64.4815 54.7058 64.3757C54.7966 64.2699 54.8737 64.1325 54.9373 63.9659C55.0008 63.7994 55.0576 63.5967 55.1052 63.3581L56.315 57.3809H55.4185C55.3549 57.3809 55.305 57.3584 55.2709 57.3134C55.2369 57.2683 55.2187 57.1828 55.2187 57.0545C55.2187 57.0004 55.2233 56.9329 55.2301 56.8473C55.2369 56.7618 55.2505 56.6717 55.2709 56.5772C55.2891 56.4826 55.3118 56.3858 55.339 56.2868C55.3663 56.1877 55.4003 56.1022 55.4434 56.0234C55.4865 55.9468 55.5319 55.8838 55.5841 55.832C55.6341 55.7825 55.6954 55.7555 55.7634 55.7555H56.6441L56.7961 54.9675C56.8824 54.5217 57.0072 54.13 57.1729 53.7901C57.3386 53.4501 57.5429 53.1665 57.7857 52.9391C58.0286 52.7117 58.3145 52.5406 58.6437 52.4258C58.9728 52.311 59.345 52.2547 59.7626 52.2547C59.901 52.2547 60.0395 52.2614 60.1802 52.2749C60.3187 52.2884 60.4458 52.3065 60.557 52.3312C60.6682 52.356 60.7681 52.383 60.8543 52.4145C60.9405 52.446 60.9996 52.4776 61.0313 52.5091C61.0631 52.5361 61.0858 52.5721 61.0994 52.6194C61.113 52.6779 61.1199 52.7365 61.1199 52.804Z" fill="white"/>
<path d="M67.7609 56.0076C67.7609 56.0774 67.7518 56.1539 67.7359 56.2372C67.72 56.3228 67.6951 56.4106 67.6633 56.5006C67.4817 56.9892 67.2843 57.4912 67.0732 58.0113C66.8621 58.5313 66.6192 59.0649 66.3469 59.6164C66.0745 60.168 65.7636 60.7376 65.4163 61.3252C65.0691 61.9128 64.6719 62.5229 64.2225 63.1532L62.2683 65.9043C62.2206 65.9741 62.1594 66.0304 62.089 66.0754C62.0164 66.1204 61.9256 66.1565 61.8166 66.1857C61.7077 66.215 61.576 66.2375 61.4194 66.2533C61.2651 66.269 61.0858 66.278 60.8815 66.278C60.6523 66.278 60.4662 66.269 60.3255 66.251C60.1847 66.233 60.0803 66.2015 60.0168 66.1587C59.9532 66.1159 59.9237 66.0642 59.9283 65.9989C59.9328 65.9358 59.9714 65.8593 60.0395 65.7692L61.8575 63.3919L60.6795 56.5727C60.6682 56.5029 60.6591 56.4331 60.6478 56.3588C60.6364 56.2845 60.6319 56.2215 60.6319 56.1674C60.6319 56.0729 60.65 55.9963 60.6841 55.9378C60.7181 55.8793 60.7771 55.8342 60.8611 55.8027C60.9451 55.7712 61.054 55.7487 61.1947 55.7352C61.3332 55.7217 61.5011 55.7149 61.6986 55.7149C61.9165 55.7149 62.089 55.7194 62.2161 55.7262C62.3409 55.7352 62.4363 55.751 62.4998 55.778C62.5634 55.805 62.6087 55.8433 62.6314 55.8973C62.6541 55.9513 62.6723 56.0166 62.6836 56.0954L63.4213 61.064H63.4372C63.705 60.6655 63.9478 60.2648 64.1657 59.8551C64.3836 59.4476 64.5856 59.0333 64.7672 58.6101C64.9488 58.1891 65.1167 57.7614 65.2688 57.3314C65.4209 56.8991 65.5616 56.4646 65.6887 56.0234C65.7 55.9693 65.7227 55.9243 65.7613 55.8838C65.7976 55.8433 65.8612 55.8117 65.9497 55.7892C66.0382 55.7645 66.154 55.7464 66.2992 55.7329C66.4445 55.7194 66.6306 55.7127 66.8598 55.7127C67.2025 55.7127 67.4363 55.7329 67.5657 55.7757C67.6973 55.8185 67.7609 55.8973 67.7609 56.0076Z" fill="white"/>
<path d="M69.8127 63.1217C69.8013 63.1757 69.7764 63.2208 69.7355 63.2613C69.6946 63.3018 69.6334 63.3333 69.5517 63.3604C69.4677 63.3874 69.361 63.4076 69.2271 63.4189C69.0932 63.4324 68.9298 63.4391 68.7391 63.4391C68.5417 63.4391 68.3805 63.4324 68.2534 63.4189C68.1286 63.4054 68.0287 63.3851 67.9561 63.3604C67.8835 63.3333 67.8381 63.2996 67.8154 63.2613C67.7949 63.2208 67.7881 63.1757 67.7995 63.1217L69.218 56.0481C69.2294 55.9941 69.2543 55.9491 69.2952 55.9085C69.336 55.868 69.3973 55.8342 69.479 55.805C69.5607 55.7757 69.6697 55.7532 69.799 55.7374C69.9307 55.7217 70.0941 55.7127 70.2916 55.7127C70.489 55.7127 70.6502 55.7217 70.7773 55.7374C70.9021 55.7532 71.002 55.7757 71.0746 55.805C71.1472 55.8342 71.1926 55.868 71.2153 55.9085C71.2357 55.9491 71.2426 55.9941 71.2312 56.0481L69.8127 63.1217ZM71.8803 53.646C71.8418 53.8418 71.7918 54.0084 71.7283 54.1435C71.6647 54.2786 71.5785 54.3867 71.4718 54.47C71.3651 54.5533 71.2335 54.6095 71.0791 54.6456C70.9248 54.6793 70.7319 54.6973 70.5026 54.6973C70.2779 54.6973 70.0964 54.6793 69.9534 54.6456C69.8127 54.6118 69.706 54.5533 69.6334 54.47C69.5607 54.3889 69.5199 54.2786 69.5085 54.1435C69.4972 54.0084 69.5131 53.8418 69.5562 53.646C69.5925 53.4546 69.6447 53.2948 69.7083 53.162C69.7718 53.0291 69.8581 52.9211 69.9647 52.8355C70.0714 52.75 70.203 52.6892 70.3574 52.6532C70.5117 52.6171 70.7046 52.5969 70.9339 52.5969C71.1586 52.5969 71.3402 52.6149 71.4831 52.6532C71.6239 52.6892 71.7305 52.7522 71.8032 52.8355C71.8758 52.9211 71.9144 53.0291 71.9235 53.162C71.9325 53.2948 71.9189 53.4569 71.8803 53.646Z" fill="white"/>
<path d="M79.5178 57.6128C79.5178 57.7974 79.5064 57.9842 79.4814 58.1688C79.4565 58.3535 79.427 58.5448 79.3884 58.7407L78.4987 63.1195C78.4873 63.1735 78.4624 63.2185 78.4215 63.259C78.3807 63.2996 78.3194 63.3311 78.2377 63.3581C78.1537 63.3851 78.047 63.4054 77.9176 63.4166C77.786 63.4301 77.6226 63.4369 77.4251 63.4369C77.2277 63.4369 77.0665 63.4301 76.9394 63.4166C76.8146 63.4031 76.717 63.3829 76.6466 63.3581C76.5763 63.3311 76.5309 63.2973 76.5059 63.259C76.4809 63.2185 76.4741 63.1735 76.4855 63.1195L77.3502 58.8667C77.3775 58.7407 77.3979 58.6101 77.4115 58.4773C77.4251 58.3444 77.4319 58.2274 77.4319 58.1283C77.4319 57.8897 77.382 57.6938 77.2799 57.5407C77.1777 57.3876 77.0075 57.3111 76.7669 57.3111C76.5468 57.3111 76.3198 57.3809 76.0815 57.5182C75.8432 57.6555 75.6185 57.8424 75.4074 58.0788C75.1963 58.3152 75.0079 58.5898 74.8422 58.905C74.6766 59.2202 74.5585 59.5556 74.4905 59.9114L73.8413 63.1217C73.83 63.1757 73.805 63.2208 73.7642 63.2613C73.7233 63.3018 73.662 63.3333 73.5803 63.3603C73.4963 63.3874 73.3897 63.4076 73.2558 63.4189C73.1218 63.4324 72.9584 63.4391 72.7678 63.4391C72.5703 63.4391 72.4092 63.4324 72.2821 63.4189C72.1572 63.4054 72.0574 63.3851 71.9847 63.3603C71.9121 63.3333 71.8667 63.2996 71.844 63.2613C71.8236 63.2208 71.8168 63.1757 71.8281 63.1217L73.2626 56.0234C73.2739 55.9693 73.2966 55.9243 73.3306 55.8838C73.3647 55.8432 73.4192 55.8117 73.4918 55.7892C73.5644 55.7645 73.6575 55.7464 73.7732 55.7329C73.889 55.7194 74.0252 55.7127 74.1863 55.7127C74.352 55.7127 74.4859 55.7194 74.5903 55.7329C74.6947 55.7464 74.7764 55.7645 74.8354 55.7892C74.8944 55.814 74.933 55.8455 74.9512 55.8838C74.9693 55.9243 74.9739 55.9693 74.9625 56.0234L74.731 57.1918C74.8422 57.0072 74.992 56.8158 75.1804 56.6245C75.3665 56.4308 75.5822 56.2575 75.825 56.1044C76.0679 55.9513 76.3334 55.8252 76.6194 55.7262C76.9054 55.6271 77.2027 55.5798 77.5136 55.5798C77.8881 55.5798 78.2014 55.6339 78.4556 55.7419C78.7098 55.85 78.914 55.9986 79.0729 56.1832C79.2295 56.3678 79.343 56.5839 79.4134 56.8316C79.4837 57.077 79.5178 57.3381 79.5178 57.6128Z" fill="white"/>
<path d="M87.0576 63.4076C86.9623 63.8894 86.8125 64.3104 86.6082 64.6684C86.4062 65.0263 86.1384 65.3257 85.807 65.5666C85.4756 65.8075 85.0739 65.9899 84.6018 66.1114C84.1297 66.233 83.5782 66.2938 82.9472 66.2938C82.4933 66.2938 82.0847 66.2578 81.7261 66.1857C81.3653 66.1137 81.0657 66.0236 80.8251 65.9111C80.7388 65.8683 80.6798 65.821 80.648 65.767C80.6163 65.713 80.6004 65.6409 80.6004 65.5441C80.6004 65.5126 80.6027 65.4586 80.6095 65.3843C80.614 65.31 80.6276 65.2289 80.6458 65.1389C80.6639 65.0488 80.6866 64.9543 80.7139 64.8575C80.7411 64.7584 80.7729 64.6729 80.8137 64.5941C80.8546 64.5175 80.8977 64.4545 80.9454 64.4027C80.993 64.3509 81.0498 64.3262 81.1133 64.3262C81.1769 64.3262 81.2563 64.3487 81.3494 64.3937C81.4424 64.4387 81.5673 64.4882 81.7216 64.54C81.8759 64.5918 82.0689 64.6413 82.2981 64.6864C82.5273 64.7314 82.811 64.7539 83.147 64.7539C83.4193 64.7539 83.6644 64.7336 83.8801 64.6909C84.0957 64.6481 84.2841 64.5805 84.4452 64.4837C84.6063 64.3892 84.7357 64.2654 84.8333 64.119C84.9332 63.9704 85.0035 63.7881 85.0467 63.5697C85.117 63.2253 85.1851 62.9371 85.2555 62.703C85.3258 62.4688 85.3894 62.2797 85.4484 62.1311C85.3531 62.3067 85.2146 62.4801 85.0353 62.6512C84.856 62.8245 84.6517 62.9776 84.4225 63.1172C84.1933 63.2545 83.9459 63.3649 83.6803 63.4481C83.4148 63.5292 83.1492 63.572 82.8837 63.572C82.4729 63.572 82.1256 63.5022 81.8464 63.3648C81.5673 63.2275 81.338 63.0362 81.161 62.793C80.984 62.5499 80.8569 62.264 80.7797 61.9353C80.7025 61.6066 80.6639 61.2509 80.6639 60.8704C80.6639 60.526 80.6957 60.1545 80.7593 59.7583C80.8228 59.3598 80.9227 58.9658 81.0589 58.5741C81.195 58.1824 81.3675 57.8064 81.5763 57.4462C81.7852 57.086 82.0348 56.7663 82.3253 56.4894C82.6159 56.2102 82.9495 55.9896 83.3263 55.8252C83.703 55.6609 84.1252 55.5798 84.5973 55.5798C85.0399 55.5798 85.4325 55.6722 85.7752 55.8545C86.118 56.0369 86.4153 56.3025 86.6717 56.6537L86.7988 56.0256C86.8193 55.9153 86.9033 55.8342 87.0508 55.787C87.1983 55.7397 87.4344 55.7149 87.7589 55.7149C87.9201 55.7149 88.0517 55.7217 88.1606 55.7352C88.2673 55.7487 88.3513 55.7667 88.4126 55.7915C88.4739 55.8162 88.5147 55.8478 88.5374 55.886C88.5578 55.9265 88.5646 55.9716 88.5533 56.0256L87.0576 63.4076ZM86.1293 58.1463C85.9432 57.8559 85.7344 57.6353 85.5074 57.4912C85.2804 57.3449 85.0172 57.2728 84.7176 57.2728C84.4929 57.2728 84.2886 57.3269 84.1048 57.4327C83.9209 57.5385 83.7552 57.6803 83.6077 57.8582C83.4602 58.036 83.3331 58.2409 83.2241 58.475C83.1152 58.7092 83.0244 58.9523 82.9518 59.2067C82.8791 59.4611 82.8269 59.7155 82.7906 59.9699C82.7566 60.2243 82.7384 60.4652 82.7384 60.6926C82.7384 60.8727 82.7543 61.037 82.7861 61.1856C82.8179 61.3342 82.8678 61.4602 82.9336 61.5638C82.9994 61.6674 83.0857 61.7462 83.1901 61.8024C83.2945 61.8587 83.4216 61.8857 83.5714 61.8857C83.8074 61.8857 84.0457 61.816 84.2931 61.6741C84.5383 61.5345 84.7675 61.3432 84.9831 61.1023C85.1965 60.8614 85.3848 60.58 85.5483 60.2558C85.7117 59.9316 85.8297 59.5872 85.9046 59.2225L86.1293 58.1463Z" fill="white"/>
<path d="M101.715 54.1007C101.715 54.2493 101.69 54.4475 101.638 54.6973C101.588 54.9472 101.522 55.1454 101.445 55.2984C101.368 55.4493 101.282 55.5258 101.184 55.5258C101.114 55.5258 101.032 55.483 100.937 55.3952C100.841 55.3074 100.714 55.2129 100.56 55.1138C100.405 55.0125 100.208 54.918 99.9675 54.8324C99.7269 54.7446 99.4273 54.7018 99.0709 54.7018C98.676 54.7018 98.3151 54.7806 97.9883 54.936C97.6615 55.0913 97.371 55.2984 97.1145 55.5551C96.858 55.8117 96.6333 56.1067 96.4404 56.4421C96.2475 56.7753 96.0886 57.122 95.9638 57.4822C95.8389 57.8424 95.7436 58.2026 95.6823 58.5583C95.621 58.9163 95.5893 59.2495 95.5893 59.5557C95.5893 59.9271 95.6369 60.2536 95.73 60.5327C95.823 60.8141 95.9592 61.046 96.134 61.2329C96.311 61.4175 96.5266 61.5571 96.7831 61.6494C97.0396 61.7417 97.3278 61.7889 97.6479 61.7889C98.0269 61.7889 98.3514 61.7484 98.6215 61.6696C98.8916 61.5908 99.1209 61.503 99.3115 61.4062C99.4999 61.3117 99.6588 61.2239 99.7836 61.1428C99.9084 61.064 100.022 61.0235 100.124 61.0235C100.194 61.0235 100.24 61.0483 100.265 61.1C100.29 61.1496 100.301 61.2216 100.301 61.3117C100.301 61.3499 100.297 61.404 100.285 61.4783C100.274 61.5526 100.26 61.6359 100.244 61.7282C100.228 61.8205 100.21 61.9218 100.188 62.0298C100.167 62.1379 100.142 62.2392 100.115 62.3315C100.088 62.4238 100.058 62.5094 100.022 62.5859C99.9856 62.6624 99.9402 62.73 99.8812 62.7885C99.8222 62.8471 99.7064 62.9213 99.5362 63.0159C99.366 63.1082 99.1572 63.1938 98.9121 63.2748C98.6669 63.3536 98.3878 63.4211 98.0791 63.4774C97.7681 63.5337 97.439 63.5607 97.085 63.5607C96.5017 63.5607 95.9774 63.4842 95.5098 63.3311C95.0423 63.178 94.6451 62.9439 94.3205 62.6309C93.9937 62.318 93.744 61.9263 93.567 61.4535C93.39 60.983 93.3014 60.4314 93.3014 59.801C93.3014 59.308 93.3514 58.7947 93.4535 58.2634C93.5556 57.7298 93.7077 57.2098 93.9143 56.701C94.1208 56.1922 94.3795 55.7104 94.695 55.2534C95.0105 54.7987 95.3827 54.3979 95.8117 54.058C96.2407 53.718 96.7309 53.4456 97.2779 53.243C97.8249 53.0426 98.4332 52.9413 99.1004 52.9413C99.4749 52.9413 99.829 52.9796 100.163 53.0561C100.496 53.1327 100.787 53.234 101.036 53.3623C101.286 53.4906 101.459 53.6055 101.556 53.709C101.654 53.8126 101.715 53.9409 101.715 54.1007Z" fill="white"/>
<path d="M109.255 58.4165C109.255 58.797 109.219 59.1909 109.146 59.5939C109.073 59.9969 108.96 60.3909 108.806 60.7736C108.651 61.1586 108.451 61.5188 108.209 61.8542C107.966 62.1919 107.675 62.4868 107.335 62.7435C106.994 63.0001 106.606 63.2028 106.168 63.3513C105.73 63.4999 105.235 63.5742 104.686 63.5742C104.146 63.5742 103.681 63.5112 103.288 63.3874C102.895 63.2635 102.568 63.0812 102.305 62.838C102.044 62.5972 101.849 62.3 101.72 61.9488C101.593 61.5976 101.527 61.1923 101.527 60.7376C101.527 60.3571 101.563 59.9631 101.636 59.5602C101.708 59.1572 101.822 58.7654 101.976 58.3827C102.13 58.0023 102.33 57.6398 102.573 57.2976C102.816 56.9554 103.106 56.6582 103.447 56.4038C103.787 56.1494 104.175 55.9491 104.613 55.8005C105.052 55.6519 105.546 55.5776 106.096 55.5776C106.636 55.5776 107.101 55.6406 107.494 55.7645C107.886 55.8883 108.213 56.0729 108.476 56.3138C108.737 56.5547 108.933 56.8518 109.062 57.203C109.191 57.5565 109.255 57.9595 109.255 58.4165ZM107.174 58.5516C107.174 58.3287 107.151 58.1306 107.106 57.9595C107.06 57.7884 106.985 57.642 106.881 57.5227C106.776 57.4034 106.643 57.3111 106.481 57.2481C106.318 57.185 106.118 57.1535 105.884 57.1535C105.617 57.1535 105.376 57.2053 105.163 57.3089C104.949 57.4124 104.759 57.552 104.591 57.7253C104.423 57.8987 104.278 58.1036 104.155 58.3332C104.032 58.5628 103.93 58.806 103.851 59.0604C103.771 59.3148 103.712 59.5737 103.674 59.8348C103.635 60.0982 103.617 60.3481 103.617 60.5867C103.617 60.8096 103.64 61.0077 103.685 61.1833C103.731 61.3589 103.805 61.5053 103.91 61.6246C104.014 61.7439 104.148 61.8362 104.312 61.8993C104.475 61.9623 104.672 61.9938 104.909 61.9938C105.176 61.9938 105.417 61.942 105.63 61.8385C105.844 61.7349 106.034 61.5953 106.202 61.4175C106.37 61.2396 106.515 61.037 106.638 60.8051C106.761 60.5755 106.863 60.3301 106.942 60.0734C107.022 59.8168 107.081 59.5579 107.119 59.299C107.153 59.0379 107.174 58.7902 107.174 58.5516Z" fill="white"/>
<path d="M121.236 63.1217C121.225 63.1757 121.2 63.2208 121.162 63.2613C121.121 63.3018 121.059 63.3333 120.973 63.3604C120.887 63.3874 120.78 63.4076 120.649 63.4189C120.517 63.4324 120.354 63.4391 120.156 63.4391C119.963 63.4391 119.804 63.4324 119.675 63.4189C119.548 63.4054 119.448 63.3851 119.378 63.3604C119.307 63.3333 119.262 63.2996 119.237 63.2613C119.212 63.2208 119.21 63.1757 119.226 63.1217L120.084 58.869C120.104 58.7474 120.124 58.6259 120.14 58.5065C120.156 58.3872 120.165 58.2679 120.165 58.1441C120.165 57.8942 120.118 57.6938 120.024 57.5407C119.931 57.3876 119.763 57.3111 119.523 57.3111C119.31 57.3111 119.087 57.3809 118.858 57.5182C118.629 57.6556 118.408 57.8424 118.197 58.0788C117.986 58.3152 117.8 58.5898 117.637 58.905C117.473 59.2202 117.358 59.5556 117.287 59.9114L116.638 63.1217C116.627 63.1757 116.602 63.2208 116.561 63.2613C116.52 63.3018 116.459 63.3333 116.373 63.3604C116.286 63.3874 116.18 63.4076 116.048 63.4189C115.916 63.4324 115.753 63.4391 115.556 63.4391C115.363 63.4391 115.204 63.4324 115.079 63.4189C114.954 63.4054 114.856 63.3851 114.786 63.3604C114.716 63.3333 114.67 63.2996 114.645 63.2613C114.62 63.2208 114.614 63.1757 114.625 63.1217L115.474 58.869C115.506 58.7474 115.528 58.6214 115.542 58.4908C115.556 58.3602 115.562 58.2341 115.562 58.1126C115.562 57.8784 115.515 57.6871 115.417 57.5362C115.322 57.3854 115.156 57.3089 114.92 57.3089C114.707 57.3089 114.484 57.3786 114.255 57.516C114.026 57.6533 113.806 57.8402 113.595 58.0765C113.383 58.3129 113.197 58.5876 113.034 58.9028C112.87 59.218 112.755 59.5534 112.684 59.9091L112.035 63.1195C112.024 63.1735 111.999 63.2185 111.958 63.259C111.917 63.2996 111.856 63.3311 111.774 63.3581C111.69 63.3851 111.584 63.4054 111.45 63.4166C111.316 63.4301 111.152 63.4369 110.962 63.4369C110.764 63.4369 110.603 63.4301 110.476 63.4166C110.351 63.4031 110.251 63.3829 110.179 63.3581C110.106 63.3311 110.061 63.2973 110.038 63.259C110.018 63.2185 110.011 63.1735 110.022 63.1195L111.456 56.0211C111.468 55.9671 111.491 55.922 111.525 55.8815C111.559 55.841 111.613 55.8095 111.686 55.787C111.758 55.7622 111.851 55.7442 111.967 55.7307C112.083 55.7172 112.219 55.7104 112.38 55.7104C112.546 55.7104 112.68 55.7172 112.784 55.7307C112.889 55.7442 112.97 55.7622 113.029 55.787C113.088 55.8117 113.127 55.8433 113.145 55.8815C113.163 55.922 113.168 55.9671 113.156 56.0211L112.925 57.1895C113.036 57.0049 113.186 56.8136 113.374 56.6222C113.56 56.4286 113.774 56.2552 114.012 56.1022C114.25 55.9491 114.509 55.823 114.788 55.7239C115.07 55.6249 115.358 55.5776 115.658 55.5776C115.966 55.5776 116.236 55.6181 116.463 55.7014C116.69 55.7847 116.876 55.8973 117.024 56.0436C117.172 56.19 117.283 56.3611 117.36 56.5569C117.437 56.7528 117.487 56.9644 117.507 57.1918C117.63 57.0004 117.787 56.8113 117.977 56.62C118.166 56.4286 118.381 56.2575 118.617 56.1044C118.856 55.9513 119.112 55.8252 119.391 55.7262C119.668 55.6271 119.954 55.5799 120.249 55.5799C120.624 55.5799 120.937 55.6316 121.191 55.7352C121.445 55.8388 121.65 55.9806 121.804 56.1652C121.958 56.3498 122.072 56.5637 122.14 56.8091C122.21 57.0545 122.244 57.3224 122.244 57.6083C122.244 57.7929 122.233 57.9797 122.212 58.1688C122.192 58.358 122.158 58.5493 122.117 58.7452L121.236 63.1217Z" fill="white"/>
<path d="M131.1 58.2814C131.1 58.6259 131.069 58.9973 131.005 59.3936C130.942 59.792 130.842 60.186 130.708 60.5777C130.574 60.9695 130.404 61.3477 130.195 61.7101C129.986 62.0726 129.736 62.3923 129.446 62.667C129.155 62.9416 128.822 63.1622 128.445 63.3266C128.068 63.4909 127.644 63.572 127.174 63.572C126.961 63.572 126.761 63.5517 126.572 63.5089C126.386 63.4662 126.214 63.4076 126.055 63.3311C125.898 63.2545 125.755 63.1645 125.626 63.0609C125.497 62.9574 125.385 62.8471 125.29 62.73L124.657 65.9336C124.646 65.9854 124.621 66.0349 124.582 66.0777C124.541 66.1204 124.48 66.1565 124.398 66.1857C124.314 66.215 124.207 66.2375 124.074 66.2533C123.94 66.269 123.774 66.278 123.577 66.278C123.379 66.278 123.218 66.269 123.095 66.2533C122.973 66.2375 122.875 66.215 122.803 66.1857C122.73 66.1565 122.685 66.1204 122.662 66.0777C122.641 66.0349 122.635 65.9876 122.646 65.9336L124.65 56.0211C124.671 55.9108 124.754 55.8297 124.897 55.7825C125.04 55.7352 125.279 55.7104 125.61 55.7104C125.776 55.7104 125.91 55.7172 126.014 55.7307C126.119 55.7442 126.2 55.7622 126.262 55.787C126.323 55.8117 126.364 55.8433 126.386 55.8815C126.407 55.922 126.414 55.9671 126.402 56.0211L126.178 57.1738C126.257 56.9982 126.384 56.8181 126.559 56.629C126.731 56.4421 126.94 56.2687 127.183 56.1134C127.426 55.9581 127.694 55.8275 127.984 55.7284C128.275 55.6271 128.577 55.5776 128.885 55.5776C129.296 55.5776 129.643 55.6474 129.923 55.7892C130.204 55.9288 130.431 56.1224 130.603 56.3656C130.776 56.6087 130.903 56.8946 130.98 57.2233C131.062 57.552 131.1 57.9054 131.1 58.2814ZM129.026 58.4548C129.026 58.2747 129.012 58.1103 128.983 57.9617C128.953 57.8131 128.906 57.6871 128.84 57.5835C128.774 57.4799 128.688 57.4012 128.583 57.3494C128.479 57.2976 128.352 57.2706 128.202 57.2706C127.962 57.2706 127.721 57.3404 127.476 57.4822C127.233 57.6218 127.004 57.8131 126.79 58.054C126.577 58.2949 126.386 58.5763 126.221 58.896C126.055 59.2157 125.937 59.5602 125.869 59.9249L125.644 61.0055C125.83 61.2959 126.039 61.5165 126.266 61.6606C126.493 61.807 126.756 61.879 127.056 61.879C127.274 61.879 127.476 61.8272 127.662 61.7191C127.846 61.6133 128.011 61.4715 128.159 61.2937C128.306 61.1158 128.434 60.9109 128.545 60.6768C128.656 60.4427 128.745 60.1995 128.817 59.9451C128.89 59.6907 128.942 59.4341 128.978 59.1774C129.008 58.9253 129.026 58.6844 129.026 58.4548Z" fill="white"/>
<path d="M133.89 63.1217C133.879 63.1757 133.854 63.2208 133.813 63.2613C133.772 63.3018 133.713 63.3333 133.633 63.3604C133.554 63.3874 133.447 63.4076 133.313 63.4189C133.179 63.4324 133.016 63.4391 132.825 63.4391C132.623 63.4391 132.458 63.4324 132.333 63.4189C132.208 63.4054 132.11 63.3851 132.04 63.3604C131.97 63.3333 131.924 63.2996 131.899 63.2613C131.874 63.2208 131.868 63.1757 131.879 63.1217L133.987 52.6689C133.999 52.6171 134.022 52.5676 134.06 52.5248C134.099 52.4821 134.16 52.446 134.244 52.4168C134.33 52.3875 134.437 52.365 134.569 52.3492C134.7 52.3335 134.864 52.3245 135.061 52.3245C135.258 52.3245 135.42 52.3335 135.547 52.3492C135.672 52.365 135.769 52.3875 135.84 52.4168C135.91 52.446 135.955 52.4821 135.976 52.5248C135.996 52.5676 136.003 52.6149 135.992 52.6689L133.89 63.1217Z" fill="white"/>
<path d="M143.354 57.5903C143.354 57.9707 143.268 58.3152 143.093 58.6191C142.919 58.923 142.651 59.1864 142.283 59.4071C141.918 59.6277 141.452 59.7943 140.89 59.9114C140.327 60.0284 139.655 60.087 138.874 60.087H138.136C138.116 60.2085 138.098 60.3301 138.089 60.4494C138.077 60.5687 138.073 60.6791 138.073 60.7781C138.073 61.2081 138.184 61.53 138.409 61.7484C138.633 61.9668 138.994 62.0749 139.491 62.0749C139.843 62.0749 140.161 62.0501 140.44 61.9983C140.722 61.9488 140.967 61.8925 141.178 61.8317C141.389 61.7709 141.564 61.7147 141.702 61.6651C141.841 61.6156 141.943 61.5886 142.006 61.5886C142.07 61.5886 142.115 61.6066 142.142 61.6449C142.17 61.6831 142.183 61.7394 142.183 61.8205C142.183 61.9105 142.174 62.0141 142.158 62.1311C142.142 62.2482 142.12 62.363 142.09 62.4778C142.061 62.5927 142.024 62.6985 141.979 62.7998C141.934 62.9011 141.881 62.9776 141.822 63.0294C141.759 63.0924 141.641 63.1555 141.471 63.2208C141.3 63.2838 141.094 63.3423 140.853 63.3964C140.613 63.4482 140.343 63.4932 140.043 63.5269C139.743 63.5607 139.439 63.5787 139.128 63.5787C138.615 63.5787 138.168 63.5247 137.787 63.4189C137.406 63.3131 137.086 63.151 136.829 62.9349C136.573 62.7187 136.38 62.4418 136.253 62.1041C136.123 61.7687 136.06 61.3679 136.06 60.9087C136.06 60.553 136.094 60.1725 136.16 59.7673C136.225 59.362 136.334 58.9613 136.484 58.5673C136.634 58.1734 136.827 57.7951 137.061 57.4349C137.297 57.0747 137.58 56.7573 137.914 56.4849C138.248 56.2125 138.633 55.9941 139.072 55.8297C139.51 55.6654 140.009 55.5844 140.57 55.5844C141.055 55.5844 141.473 55.6406 141.825 55.7555C142.174 55.8703 142.462 56.0211 142.687 56.208C142.912 56.3948 143.077 56.6109 143.189 56.8518C143.298 57.0882 143.354 57.3359 143.354 57.5903ZM141.375 57.7411C141.375 57.5295 141.291 57.3539 141.123 57.212C140.955 57.0725 140.71 57.0004 140.39 57.0004C140.122 57.0004 139.884 57.0477 139.673 57.1445C139.462 57.2391 139.276 57.3674 139.117 57.5295C138.956 57.6916 138.82 57.8829 138.704 58.1013C138.588 58.3219 138.497 58.5561 138.427 58.8037H139.101C139.528 58.8037 139.886 58.7767 140.175 58.7204C140.463 58.6641 140.694 58.5898 140.871 58.493C141.048 58.3985 141.176 58.2859 141.255 58.1553C141.334 58.027 141.375 57.8897 141.375 57.7411Z" fill="white"/>
<path d="M148.563 59.4498L149.846 62.9799C149.873 63.0699 149.877 63.1442 149.862 63.2028C149.846 63.2613 149.796 63.3086 149.714 63.3468C149.63 63.3851 149.512 63.4099 149.358 63.4234C149.203 63.4369 149.001 63.4437 148.756 63.4437C148.531 63.4437 148.354 63.4391 148.227 63.4279C148.1 63.4166 148 63.4009 147.93 63.3806C147.86 63.3604 147.814 63.3311 147.789 63.2928C147.764 63.2568 147.748 63.214 147.737 63.1667L146.872 60.6633L145.061 63.1757C145.029 63.223 144.993 63.2636 144.952 63.2996C144.911 63.3333 144.846 63.3626 144.753 63.3829C144.659 63.4031 144.537 63.4189 144.385 63.4301C144.233 63.4414 144.028 63.4459 143.772 63.4459C143.543 63.4459 143.357 63.4392 143.218 63.4256C143.08 63.4121 142.978 63.3896 142.914 63.3536C142.851 63.3198 142.821 63.2748 142.83 63.2185C142.839 63.1622 142.871 63.0902 142.93 63.0001L145.647 59.4701L144.453 56.1945C144.421 56.0999 144.41 56.0211 144.421 55.9603C144.432 55.8995 144.473 55.85 144.546 55.814C144.619 55.778 144.73 55.751 144.882 55.7374C145.034 55.7239 145.236 55.7172 145.488 55.7172C145.706 55.7172 145.878 55.7217 146.005 55.7284C146.13 55.7374 146.228 55.7487 146.294 55.7645C146.359 55.7802 146.405 55.805 146.43 55.841C146.455 55.8748 146.473 55.9198 146.489 55.9716L147.322 58.34L149.044 55.9716C149.076 55.9288 149.11 55.8928 149.149 55.8613C149.187 55.8298 149.244 55.8027 149.326 55.7825C149.405 55.7622 149.51 55.7465 149.639 55.7352C149.766 55.7239 149.941 55.7194 150.159 55.7194C150.404 55.7194 150.601 55.7239 150.747 55.7352C150.894 55.7465 151.001 55.7667 151.071 55.7982C151.142 55.8298 151.171 55.8748 151.164 55.9288C151.158 55.9828 151.117 56.0594 151.049 56.1562L148.563 59.4498Z" fill="white"/>
<path d="M153.146 63.1217C153.134 63.1757 153.109 63.2208 153.069 63.2613C153.028 63.3018 152.966 63.3333 152.885 63.3604C152.801 63.3874 152.694 63.4076 152.56 63.4189C152.426 63.4324 152.263 63.4391 152.072 63.4391C151.875 63.4391 151.714 63.4324 151.586 63.4189C151.462 63.4054 151.362 63.3851 151.289 63.3604C151.217 63.3333 151.171 63.2996 151.148 63.2613C151.128 63.2208 151.121 63.1757 151.133 63.1217L152.551 56.0481C152.562 55.9941 152.587 55.9491 152.626 55.9085C152.667 55.868 152.728 55.8342 152.81 55.805C152.892 55.7757 152.998 55.7532 153.13 55.7374C153.261 55.7217 153.425 55.7127 153.622 55.7127C153.82 55.7127 153.981 55.7217 154.108 55.7374C154.233 55.7532 154.333 55.7757 154.405 55.805C154.478 55.8342 154.523 55.868 154.546 55.9085C154.567 55.9491 154.573 55.9941 154.562 56.0481L153.146 63.1217ZM155.213 53.646C155.175 53.8418 155.125 54.0084 155.061 54.1435C154.998 54.2786 154.912 54.3867 154.805 54.47C154.698 54.5533 154.567 54.6095 154.412 54.6456C154.258 54.6793 154.065 54.6973 153.836 54.6973C153.611 54.6973 153.429 54.6793 153.286 54.6456C153.146 54.6118 153.039 54.5533 152.966 54.47C152.894 54.3889 152.853 54.2786 152.842 54.1435C152.83 54.0084 152.846 53.8418 152.889 53.646C152.926 53.4546 152.978 53.2948 153.041 53.162C153.105 53.0291 153.191 52.9211 153.298 52.8355C153.404 52.75 153.536 52.6892 153.69 52.6532C153.845 52.6171 154.038 52.5969 154.267 52.5969C154.492 52.5969 154.673 52.6149 154.816 52.6532C154.959 52.6914 155.064 52.7522 155.136 52.8355C155.209 52.9211 155.25 53.0291 155.257 53.162C155.266 53.2948 155.252 53.4569 155.213 53.646Z" fill="white"/>
<path d="M162.746 63.1217C162.735 63.1757 162.71 63.2208 162.672 63.2613C162.631 63.3018 162.569 63.3333 162.488 63.3604C162.404 63.3874 162.297 63.4076 162.168 63.4189C162.036 63.4324 161.873 63.4391 161.675 63.4391C161.482 63.4391 161.323 63.4324 161.194 63.4189C161.067 63.4054 160.965 63.3851 160.894 63.3604C160.822 63.3333 160.774 63.2996 160.749 63.2613C160.724 63.2208 160.722 63.1757 160.738 63.1217L161.891 57.3831H158.677L158.003 60.7128C157.987 60.7916 157.971 60.8862 157.96 60.9942C157.948 61.1023 157.939 61.1923 157.939 61.2599C157.939 61.4715 157.989 61.6268 158.091 61.7259C158.193 61.825 158.352 61.8722 158.573 61.8722C158.7 61.8722 158.811 61.8632 158.902 61.8452C158.992 61.8272 159.072 61.8047 159.138 61.7822C159.203 61.7574 159.262 61.7372 159.31 61.7191C159.358 61.7011 159.403 61.6921 159.446 61.6921C159.489 61.6921 159.526 61.7124 159.555 61.7507C159.585 61.7912 159.598 61.8565 159.598 61.9465C159.598 62.0478 159.587 62.1604 159.567 62.2887C159.546 62.4148 159.517 62.5386 159.483 62.6579C159.449 62.7773 159.41 62.8853 159.367 62.9844C159.324 63.0834 159.278 63.1555 159.231 63.2028C159.183 63.25 159.11 63.2951 159.015 63.3378C158.92 63.3806 158.806 63.4166 158.675 63.4482C158.543 63.4797 158.402 63.5044 158.255 63.5247C158.105 63.5427 157.955 63.5517 157.805 63.5517C157.485 63.5517 157.204 63.5179 156.961 63.4527C156.718 63.3874 156.514 63.2816 156.348 63.1397C156.183 62.9956 156.058 62.8133 155.976 62.5904C155.892 62.3675 155.851 62.0974 155.851 61.7799C155.851 61.7214 155.853 61.6539 155.86 61.5773C155.865 61.5008 155.876 61.4197 155.887 61.3342C155.901 61.2486 155.915 61.1631 155.928 61.0753C155.942 60.9875 155.956 60.9087 155.971 60.8411L156.668 57.3831H155.804C155.733 57.3831 155.683 57.3606 155.651 57.3156C155.62 57.2706 155.604 57.185 155.604 57.0567C155.604 56.9667 155.613 56.8496 155.631 56.7032C155.649 56.5569 155.681 56.4151 155.724 56.2733C155.767 56.1337 155.824 56.0121 155.892 55.9108C155.962 55.8095 156.044 55.76 156.139 55.76H156.997L157.317 54.1773C157.329 54.1255 157.354 54.076 157.392 54.0332C157.433 53.9904 157.494 53.9544 157.576 53.9251C157.658 53.8959 157.765 53.8756 157.896 53.8621C158.028 53.8486 158.191 53.8418 158.389 53.8418C158.582 53.8418 158.74 53.8486 158.87 53.8621C158.997 53.8756 159.099 53.8959 159.169 53.9251C159.242 53.9544 159.287 53.9904 159.31 54.0332C159.331 54.076 159.337 54.1233 159.326 54.1773L159.006 55.76H163.629C163.854 55.76 164.002 55.8072 164.07 55.904C164.14 55.9986 164.156 56.1382 164.117 56.3183L162.746 63.1217ZM164.805 53.646C164.766 53.8418 164.716 54.0084 164.653 54.1435C164.589 54.2786 164.505 54.3867 164.401 54.47C164.297 54.5533 164.165 54.6095 164.008 54.6456C163.849 54.6793 163.659 54.6973 163.436 54.6973C163.212 54.6973 163.028 54.6793 162.887 54.6456C162.746 54.6118 162.64 54.5533 162.567 54.47C162.494 54.3889 162.454 54.2786 162.442 54.1435C162.431 54.0084 162.445 53.8418 162.483 53.646C162.526 53.4546 162.578 53.2948 162.64 53.162C162.701 53.0291 162.785 52.9211 162.892 52.8355C162.998 52.75 163.13 52.6892 163.284 52.6532C163.439 52.6171 163.632 52.5969 163.861 52.5969C164.086 52.5969 164.267 52.6149 164.41 52.6532C164.553 52.6914 164.657 52.7522 164.73 52.8355C164.803 52.9211 164.841 53.0291 164.85 53.162C164.857 53.2948 164.844 53.4569 164.805 53.646Z" fill="white"/>
<path d="M172.218 57.5903C172.218 57.9707 172.132 58.3152 171.957 58.6191C171.782 58.923 171.514 59.1864 171.146 59.4071C170.781 59.6277 170.316 59.7943 169.753 59.9114C169.19 60.0284 168.518 60.087 167.737 60.087H167C166.979 60.2085 166.961 60.3301 166.952 60.4494C166.941 60.5687 166.936 60.6791 166.936 60.7781C166.936 61.2081 167.047 61.53 167.272 61.7484C167.497 61.9668 167.858 62.0749 168.355 62.0749C168.707 62.0749 169.024 62.0501 169.304 61.9983C169.585 61.9488 169.83 61.8925 170.041 61.8317C170.252 61.7709 170.427 61.7147 170.565 61.6651C170.704 61.6156 170.806 61.5886 170.87 61.5886C170.933 61.5886 170.979 61.6066 171.006 61.6449C171.033 61.6831 171.047 61.7394 171.047 61.8205C171.047 61.9105 171.038 62.0141 171.022 62.1311C171.006 62.2482 170.983 62.363 170.954 62.4778C170.924 62.5927 170.888 62.6985 170.842 62.7998C170.797 62.9011 170.745 62.9776 170.686 63.0294C170.622 63.0924 170.504 63.1555 170.334 63.2208C170.164 63.2838 169.957 63.3423 169.717 63.3964C169.476 63.4482 169.206 63.4932 168.906 63.5269C168.607 63.5607 168.303 63.5787 167.992 63.5787C167.479 63.5787 167.032 63.5247 166.65 63.4189C166.269 63.3131 165.949 63.151 165.692 62.9349C165.436 62.7187 165.243 62.4418 165.116 62.1041C164.987 61.7687 164.923 61.3679 164.923 60.9087C164.923 60.553 164.957 60.1725 165.023 59.7673C165.089 59.362 165.198 58.9613 165.347 58.5673C165.497 58.1734 165.69 57.7951 165.924 57.4349C166.16 57.0747 166.444 56.7573 166.777 56.4849C167.111 56.2125 167.497 55.9941 167.935 55.8297C168.373 55.6654 168.872 55.5844 169.433 55.5844C169.919 55.5844 170.336 55.6406 170.688 55.7555C171.038 55.8703 171.326 56.0211 171.55 56.208C171.775 56.3948 171.941 56.6109 172.052 56.8518C172.163 57.0882 172.218 57.3359 172.218 57.5903ZM170.239 57.7411C170.239 57.5295 170.155 57.3539 169.987 57.212C169.819 57.0725 169.574 57.0004 169.254 57.0004C168.986 57.0004 168.747 57.0477 168.536 57.1445C168.325 57.2391 168.139 57.3674 167.98 57.5295C167.819 57.6916 167.683 57.8829 167.567 58.1013C167.451 58.3219 167.361 58.5561 167.29 58.8037H167.964C168.391 58.8037 168.75 58.7767 169.038 58.7204C169.326 58.6641 169.558 58.5898 169.735 58.493C169.912 58.3985 170.039 58.2859 170.118 58.1553C170.2 58.027 170.239 57.8897 170.239 57.7411Z" fill="white"/>
<path d="M178.725 56.3408C178.725 56.4038 178.716 56.4984 178.698 56.6222C178.679 56.746 178.65 56.8721 178.614 57.0004C178.575 57.1265 178.532 57.2368 178.482 57.3291C178.432 57.4214 178.373 57.4687 178.31 57.4687C178.239 57.4687 178.157 57.4439 178.064 57.3921C177.971 57.3426 177.858 57.2863 177.724 57.2256C177.59 57.1648 177.433 57.1107 177.254 57.0635C177.075 57.0162 176.866 56.9914 176.625 56.9914C176.439 56.9914 176.271 57.0162 176.124 57.0635C175.976 57.1107 175.856 57.176 175.758 57.2593C175.663 57.3426 175.588 57.4372 175.538 57.5497C175.488 57.6623 175.463 57.7794 175.463 57.9077C175.463 58.072 175.531 58.2094 175.668 58.3219C175.804 58.4322 175.974 58.5381 176.176 58.6349C176.378 58.7339 176.598 58.8352 176.832 58.941C177.068 59.0469 177.286 59.1797 177.49 59.3395C177.692 59.4994 177.862 59.693 177.994 59.9204C178.128 60.1477 178.194 60.4337 178.194 60.7781C178.194 61.1811 178.117 61.5525 177.962 61.8947C177.808 62.2369 177.581 62.5319 177.286 62.7818C176.989 63.0317 176.628 63.2253 176.203 63.3671C175.779 63.5089 175.3 63.5787 174.764 63.5787C174.508 63.5787 174.263 63.5607 174.031 63.5224C173.8 63.4842 173.591 63.4391 173.407 63.3874C173.223 63.3333 173.067 63.2725 172.937 63.205C172.81 63.1352 172.713 63.0722 172.649 63.0136C172.606 62.9709 172.576 62.9258 172.556 62.8786C172.538 62.8313 172.529 62.7705 172.529 62.6962C172.529 62.6489 172.533 62.5881 172.54 62.5139C172.549 62.4396 172.56 62.3585 172.581 62.2685C172.599 62.1784 172.622 62.0884 172.644 61.9983C172.669 61.9083 172.697 61.8272 172.728 61.7529C172.76 61.6786 172.794 61.6201 172.833 61.5751C172.871 61.53 172.91 61.5075 172.953 61.5075C173.028 61.5075 173.11 61.539 173.2 61.6021C173.291 61.6651 173.409 61.7349 173.552 61.8137C173.698 61.8902 173.875 61.9623 174.086 62.0276C174.297 62.0929 174.56 62.1266 174.875 62.1266C175.093 62.1266 175.286 62.1019 175.447 62.0501C175.611 62.0006 175.745 61.9285 175.851 61.8385C175.958 61.7484 176.038 61.6449 176.088 61.5278C176.137 61.4107 176.162 61.2869 176.162 61.1541C176.162 60.9695 176.097 60.8186 175.967 60.7016C175.836 60.5845 175.672 60.4764 175.475 60.3751C175.277 60.2738 175.062 60.1702 174.83 60.0644C174.599 59.9586 174.383 59.8281 174.186 59.675C173.988 59.5219 173.825 59.3305 173.693 59.1031C173.561 58.8758 173.496 58.5898 173.496 58.2454C173.496 57.8694 173.568 57.5205 173.711 57.1963C173.856 56.8721 174.068 56.5907 174.344 56.3498C174.621 56.1089 174.959 55.9198 175.354 55.7847C175.749 55.6496 176.199 55.5821 176.7 55.5821C176.925 55.5821 177.143 55.5979 177.354 55.6249C177.565 55.6541 177.756 55.6924 177.924 55.7397C178.092 55.787 178.239 55.841 178.364 55.8995C178.489 55.9581 178.58 56.0166 178.632 56.0751C178.695 56.1247 178.725 56.2147 178.725 56.3408Z" fill="white"/>
<path d="M178.698 13.1862C180.641 13.1862 182.216 11.6238 182.216 9.69664C182.216 7.76943 180.641 6.20712 178.698 6.20712C176.755 6.20712 175.18 7.76943 175.18 9.69664C175.18 11.6238 176.755 13.1862 178.698 13.1862Z" stroke="#A8A6A7" stroke-width="0.5" stroke-miterlimit="10"/>
<path d="M180.298 11.7251C180.298 11.7431 180.294 11.7588 180.287 11.7723C180.28 11.7858 180.264 11.7971 180.242 11.8061C180.219 11.8151 180.187 11.8219 180.144 11.8264C180.103 11.8309 180.046 11.8331 179.978 11.8331C179.919 11.8331 179.869 11.8309 179.831 11.8264C179.792 11.8219 179.763 11.8151 179.74 11.8039C179.717 11.7926 179.699 11.7791 179.685 11.7611C179.672 11.7431 179.663 11.7206 179.654 11.6935L179.243 10.6489C179.195 10.5296 179.145 10.4216 179.093 10.3225C179.041 10.2234 178.98 10.1379 178.909 10.0658C178.837 9.99381 178.753 9.93753 178.657 9.897C178.56 9.85648 178.444 9.83622 178.308 9.83622H177.911V11.7228C177.911 11.7408 177.906 11.7566 177.895 11.7701C177.883 11.7836 177.867 11.7948 177.847 11.8016C177.824 11.8106 177.795 11.8174 177.756 11.8219C177.718 11.8286 177.67 11.8309 177.613 11.8309C177.557 11.8309 177.509 11.8286 177.47 11.8219C177.432 11.8151 177.402 11.8084 177.379 11.8016C177.357 11.7926 177.341 11.7836 177.332 11.7701C177.323 11.7566 177.318 11.7408 177.318 11.7228V7.62094C177.318 7.53088 177.341 7.4701 177.389 7.43408C177.436 7.39806 177.486 7.38005 177.538 7.38005H178.487C178.601 7.38005 178.694 7.3823 178.769 7.38905C178.843 7.39581 178.911 7.40031 178.971 7.40706C179.143 7.43633 179.295 7.48361 179.429 7.54664C179.561 7.60968 179.672 7.69073 179.763 7.78978C179.853 7.88884 179.919 8.00141 179.965 8.12748C180.01 8.25355 180.033 8.39313 180.033 8.54622C180.033 8.69481 180.012 8.82763 179.971 8.9447C179.931 9.06177 179.874 9.16533 179.797 9.25538C179.722 9.34543 179.629 9.42423 179.524 9.48952C179.418 9.5548 179.3 9.61109 179.168 9.65836C179.241 9.68988 179.309 9.73041 179.368 9.77993C179.427 9.82946 179.483 9.888 179.536 9.95554C179.588 10.0231 179.636 10.1019 179.683 10.1919C179.729 10.282 179.776 10.381 179.822 10.4936L180.221 11.4707C180.253 11.554 180.273 11.6102 180.282 11.644C180.294 11.6823 180.298 11.707 180.298 11.7251ZM179.404 8.61151C179.404 8.43816 179.365 8.29182 179.286 8.17025C179.207 8.04868 179.077 7.96313 178.893 7.91135C178.837 7.89559 178.771 7.88434 178.698 7.87758C178.626 7.87083 178.53 7.86633 178.414 7.86633H177.911V9.35894H178.492C178.648 9.35894 178.784 9.34093 178.898 9.30266C179.011 9.26439 179.107 9.21261 179.182 9.14507C179.256 9.07753 179.313 8.99873 179.35 8.90643C179.386 8.81863 179.404 8.71957 179.404 8.61151Z" fill="#A8A6A7"/>
</g>
<defs>
<clipPath id="clip0_436_307">
<rect width="186" height="69" fill="white"/>
</clipPath>
</defs>
</svg>
