<svg width="35" height="35" viewBox="0 0 35 35" fill="none" xmlns="http://www.w3.org/2000/svg">
<mask id="mask0_281_4154" style="mask-type:luminance" maskUnits="userSpaceOnUse" x="0" y="0" width="35" height="35">
<path d="M0 0H35V35H0V0Z" fill="white"/>
</mask>
<g mask="url(#mask0_281_4154)">
<path fill-rule="evenodd" clip-rule="evenodd" d="M7.85094 21.1531C6.54623 20.83 5.3873 20.0793 4.55905 19.0207C3.7308 17.9621 3.28095 16.6566 3.28125 15.3125V14.7656C3.28125 13.1702 3.91504 11.6401 5.04319 10.5119C6.17133 9.38379 7.70143 8.75 9.29688 8.75H9.84375C11.4043 8.74859 12.9042 9.35434 14.0261 10.4391C15.148 11.5238 15.8039 13.0025 15.855 14.5622V14.5687H15.8594V15.3125C15.8594 15.5998 15.8397 15.8813 15.8003 16.1569C15.7566 16.7285 15.6909 17.29 15.6034 17.8413C15.3727 19.2854 14.9619 20.6949 14.3806 22.0369C13.3384 24.4409 11.7128 26.5469 9.65125 28.1641L9.43688 28.3303C9.34627 28.3993 9.23572 28.4369 9.12187 28.4375C9.02775 28.4371 8.9353 28.4125 8.85349 28.366C8.77167 28.3194 8.70325 28.2525 8.65486 28.1718C8.60646 28.0911 8.57972 27.9992 8.57723 27.9051C8.57474 27.811 8.59657 27.7179 8.64062 27.6347C9.15975 26.6474 9.63419 25.6372 10.0625 24.6072C10.4934 23.5703 10.9288 22.3912 11.2809 21.1553C10.8108 21.2716 10.3281 21.3297 9.84375 21.3281H9.29688C8.79667 21.3267 8.31469 21.2683 7.85094 21.1531ZM6.65 24.2266C4.72884 23.656 3.04349 22.4799 1.84514 20.8735C0.646781 19.2672 -0.000417863 17.3166 2.02413e-07 15.3125V14.7656C2.02413e-07 12.2999 0.97949 9.93524 2.72299 8.19174C4.46649 6.44824 6.83119 5.46875 9.29688 5.46875H9.84375C13.02 5.46875 15.8222 7.06125 17.5 9.48937C18.3549 8.24905 19.4985 7.23506 20.8322 6.53468C22.1659 5.83429 23.6498 5.46848 25.1562 5.46875H25.7031C28.1366 5.46825 30.4732 6.42188 32.2114 8.1249C33.9496 9.82792 34.9508 12.1446 35 14.5775V15.3125C35 15.7135 34.9745 16.1095 34.9234 16.5003C34.4706 22.2316 31.9528 27.3634 27.2934 30.9356C26.6296 31.4435 25.8171 31.7187 24.9813 31.7188C22.0478 31.7188 20.2869 28.6016 21.595 26.11C21.8378 25.6484 22.1637 24.9988 22.5094 24.2288C20.8063 23.7216 19.2842 22.737 18.1234 21.3916C16.9387 25.1903 14.6007 28.526 11.4341 30.9356C10.7702 31.4435 9.95768 31.7187 9.12187 31.7188C6.18844 31.7188 4.4275 28.6016 5.73562 26.11C5.97844 25.6484 6.30437 24.9988 6.65 24.2288M23.7125 21.1531C24.1763 21.2683 24.6582 21.3267 25.1584 21.3281H25.7053C26.1895 21.3275 26.672 21.2695 27.1425 21.1553C26.7438 22.5487 26.2467 23.912 25.655 25.235C25.2979 26.0477 24.9134 26.848 24.5022 27.6347C24.4581 27.7179 24.4363 27.811 24.4388 27.9051C24.4413 27.9992 24.468 28.0911 24.5164 28.1718C24.5648 28.2525 24.6332 28.3194 24.715 28.366C24.7969 28.4125 24.8893 28.4371 24.9834 28.4375C25.0973 28.4369 25.2078 28.3993 25.2984 28.3303L25.5128 28.1641C26.172 27.642 26.7786 27.082 27.3328 26.4841C28.624 25.0962 29.6541 23.4866 30.3734 21.7328C30.8856 20.482 31.2512 19.1762 31.4628 17.8413C31.5533 17.2829 31.6197 16.7209 31.6619 16.1569C31.7013 15.8798 31.7209 15.5983 31.7209 15.3125V14.5709H31.7188V14.5622C31.6676 13.0017 31.0111 11.5224 29.8883 10.4376C28.7654 9.3527 27.2644 8.74746 25.7031 8.75H25.1541C23.5586 8.75 22.0285 9.38379 20.9004 10.5119C19.7722 11.6401 19.1384 13.1702 19.1384 14.7656V15.3125C19.1384 18.1344 21.0853 20.5056 23.7081 21.1531" fill="#5393C5"/>
</g>
</svg>
